<?xml version="1.0" standalone="no"?>
<!DOCTYPE svg PUBLIC "-//W3C//DTD SVG 20010904//EN"
 "http://www.w3.org/TR/2001/REC-SVG-20010904/DTD/svg10.dtd">
<svg version="1.0" xmlns="http://www.w3.org/2000/svg"
 width="512.000000pt" height="512.000000pt" viewBox="0 0 512.000000 512.000000"
 preserveAspectRatio="xMidYMid meet">
<metadata>
Created by potrace 1.14, written by Peter Selinger 2001-2017
</metadata>
<g transform="translate(0.000000,512.000000) scale(0.100000,-0.100000)"
fill="#000000" stroke="none">
<path d="M1099 4338 c-1 -18 -3 -42 -4 -53 -4 -31 -24 -345 -30 -450 -1 -33
-6 -125 -10 -205 -5 -80 -8 -178 -9 -219 l-1 -75 35 -3 c19 -1 52 -5 73 -7 20
-2 37 -1 38 2 0 4 2 23 4 42 20 207 38 296 81 412 58 154 145 237 290 273 87
22 329 27 393 9 55 -16 98 -64 106 -118 3 -22 5 -669 3 -1436 l-3 -1395 -28
-56 c-15 -31 -41 -70 -58 -87 -66 -68 -201 -106 -391 -111 -28 -1 -28 -2 -28
-66 l0 -65 995 0 c547 0 995 3 996 8 3 22 4 108 2 117 -2 6 -27 10 -56 9 -72
-1 -202 22 -263 47 -92 36 -153 116 -174 228 -6 35 -10 540 -10 1430 0 1314 1
1378 19 1416 10 22 27 47 37 57 28 24 102 34 249 32 197 -2 297 -34 380 -120
99 -104 156 -275 181 -549 3 -38 8 -72 10 -74 6 -6 114 -1 137 5 21 6 21 -29
-8 434 -4 52 -8 127 -10 165 -2 39 -7 111 -10 160 -9 120 -13 192 -14 238 l-1
37 -1460 0 -1460 0 -1 -32z"/>
</g>
</svg>
